<svg width="347" height="50" viewBox="0 0 347 50" fill="none" xmlns="http://www.w3.org/2000/svg">
<path d="M61.916 29.8016H75.9739L68.9712 16.0189L61.916 29.8016ZM55.0163 37.837L67.9041 12.7147H70.0208L82.9255 37.837H80.1037L77.1096 32.0212H60.7978L57.8381 37.837H55.0163Z" fill="#202020"/>
<path d="M61.916 29.8016H75.9739L68.9712 16.0189L61.916 29.8016ZM55.0163 37.837L67.9041 12.7147H70.0208L82.9255 37.837H80.1037L77.1096 32.0212H60.7978L57.8381 37.837H55.0163Z" stroke="#202020" stroke-width="2.66667" stroke-miterlimit="10"/>
<path d="M88.1952 37.837V12.7147H90.7418V24.0544H97.0394L107.295 12.7147H110.478L110.513 12.784L99.2933 25.2762L110.443 37.6648L110.392 37.8714L107.656 38.2327L97.0743 26.4974H90.7418V37.837H88.1952Z" fill="#202020"/>
<path d="M88.1952 37.837V12.7147H90.7418V24.0544H97.0394L107.295 12.7147H110.478L110.513 12.784L99.2933 25.2762L110.443 37.6648L110.392 37.8714L107.656 38.2327L97.0743 26.4974H90.7418V37.837H88.1952Z" stroke="#202020" stroke-width="2.66667" stroke-miterlimit="10"/>
<path d="M114.009 15.1585V12.7148H137.772L137.565 15.1585H127.31V37.8372H124.798V15.1585H114.009Z" fill="#202020"/>
<path d="M114.009 15.1585V12.7148H137.772L137.565 15.1585H127.31V37.8372H124.798V15.1585H114.009Z" stroke="#202020" stroke-width="2.66667" stroke-miterlimit="10"/>
<path d="M142.629 37.837V12.7147H163.672L163.466 15.1584H145.175V24.0544H161.556L161.418 26.4974H145.175V35.3934H163.672L163.466 37.837H142.629Z" fill="#202020"/>
<path d="M142.629 37.837V12.7147H163.672L163.466 15.1584H145.175V24.0544H161.556L161.418 26.4974H145.175V35.3934H163.672L163.466 37.837H142.629Z" stroke="#202020" stroke-width="2.66667" stroke-miterlimit="10"/>
<path d="M172.297 26.2915C174.109 26.3782 175.83 26.445 177.459 26.4937C179.088 26.5423 180.419 26.566 181.451 26.566C182.667 26.566 183.805 26.5036 184.867 26.3776C185.927 26.2515 186.84 25.9807 187.601 25.5651C188.365 25.1489 188.964 24.5548 189.401 23.7817C189.835 23.0079 190.054 21.9583 190.054 20.6304C190.054 19.3262 189.835 18.2785 189.401 17.4878C188.964 16.6972 188.365 16.0944 187.601 15.6788C186.84 15.2632 185.93 15.0005 184.875 14.8913C183.82 14.7833 182.679 14.7284 181.451 14.7284C180.419 14.7284 179.085 14.7521 177.451 14.8002C175.816 14.8476 174.098 14.91 172.297 14.9868V26.2915ZM169.75 37.8371V12.7147C170.828 12.6461 171.932 12.5831 173.063 12.5256C174.193 12.4689 175.274 12.4252 176.306 12.3965C177.338 12.3684 178.302 12.3422 179.197 12.3191C180.091 12.2966 180.866 12.2854 181.52 12.2854C183.114 12.2854 184.588 12.3796 185.942 12.5687C187.294 12.7578 188.466 13.144 189.452 13.7275C190.438 14.3116 191.207 15.1503 191.758 16.2429C192.308 17.3362 192.584 18.7989 192.584 20.6304C192.584 21.9552 192.438 23.0759 192.146 23.9914C191.853 24.9074 191.442 25.6849 190.914 26.3246C190.386 26.9635 189.742 27.4653 188.979 27.8278C188.216 28.191 187.375 28.4531 186.458 28.6147L192.068 37.6655L192.033 37.8714L189.486 38.1815L183.739 28.9754C183.384 28.9985 183.025 29.0097 182.664 29.0097H181.52C180.465 29.0097 179.108 28.9866 177.451 28.9411C175.793 28.8955 174.075 28.8262 172.297 28.7345V37.8371H169.75Z" fill="#202020"/>
<path d="M172.297 26.2915C174.109 26.3782 175.83 26.445 177.459 26.4937C179.088 26.5423 180.419 26.566 181.451 26.566C182.667 26.566 183.805 26.5036 184.867 26.3776C185.927 26.2515 186.84 25.9807 187.601 25.5651C188.365 25.1489 188.964 24.5548 189.401 23.7817C189.835 23.0079 190.054 21.9583 190.054 20.6304C190.054 19.3262 189.835 18.2785 189.401 17.4878C188.964 16.6972 188.365 16.0944 187.601 15.6788C186.84 15.2632 185.93 15.0005 184.875 14.8913C183.82 14.7833 182.679 14.7284 181.451 14.7284C180.419 14.7284 179.085 14.7521 177.451 14.8002C175.816 14.8476 174.098 14.91 172.297 14.9868V26.2915ZM169.75 37.8371V12.7147C170.828 12.6461 171.932 12.5831 173.063 12.5256C174.193 12.4689 175.274 12.4252 176.306 12.3965C177.338 12.3684 178.302 12.3422 179.197 12.3191C180.091 12.2966 180.866 12.2854 181.52 12.2854C183.114 12.2854 184.588 12.3796 185.942 12.5687C187.294 12.7578 188.466 13.144 189.452 13.7275C190.438 14.3116 191.207 15.1503 191.758 16.2429C192.308 17.3362 192.584 18.7989 192.584 20.6304C192.584 21.9552 192.438 23.0759 192.146 23.9914C191.853 24.9074 191.442 25.6849 190.914 26.3246C190.386 26.9635 189.742 27.4653 188.979 27.8278C188.216 28.191 187.375 28.4531 186.458 28.6147L192.068 37.6655L192.033 37.8714L189.486 38.1815L183.739 28.9754C183.384 28.9985 183.025 29.0097 182.664 29.0097H181.52C180.465 29.0097 179.108 28.9866 177.451 28.9411C175.793 28.8955 174.075 28.8262 172.297 28.7345V37.8371H169.75Z" stroke="#202020" stroke-width="2.66667" stroke-miterlimit="10"/>
<path d="M197.56 34.8434H200.623V37.8374H197.56V34.8434Z" fill="#202020" stroke="#202020" stroke-width="2.66667" stroke-miterlimit="10"/>
<path d="M209.179 35.5487C210.82 35.6399 212.391 35.7091 213.894 35.7547C215.397 35.8008 216.676 35.8233 217.731 35.8233C219.027 35.8233 220.252 35.7665 221.405 35.6517C222.557 35.5369 223.567 35.3016 224.433 34.9459C225.299 34.5909 225.99 34.086 226.507 33.4321C227.023 32.7787 227.281 31.8951 227.281 30.7819C227.281 29.7497 227.046 28.9298 226.575 28.3214C226.105 27.7136 225.449 27.2431 224.605 26.9105C223.762 26.5779 222.747 26.3601 221.56 26.2565C220.372 26.1535 219.062 26.1017 217.628 26.1017H209.179V35.5487ZM209.179 23.6587H217.696C218.396 23.6587 219.076 23.6762 219.736 23.7099C220.395 23.7448 221.035 23.7848 221.654 23.8309C223.203 23.4958 224.353 22.9773 225.105 22.2746C225.856 21.5726 226.231 20.5829 226.231 19.3062C226.231 18.284 226.008 17.4628 225.56 16.8413C225.113 16.2204 224.503 15.7449 223.727 15.4136C222.953 15.0828 222.044 14.8863 221.001 14.8226C219.957 14.7602 218.833 14.7284 217.628 14.7284C216.687 14.7284 215.46 14.7409 213.946 14.7671C212.432 14.7927 210.843 14.8314 209.179 14.8831V23.6587ZM206.633 37.837V12.7147C207.642 12.646 208.677 12.583 209.738 12.5256C210.8 12.4688 211.812 12.4251 212.776 12.3964C213.739 12.3684 214.642 12.3428 215.485 12.3191C216.328 12.2966 217.054 12.2854 217.663 12.2854C219.165 12.2854 220.593 12.3677 221.947 12.5319C223.3 12.6966 224.481 13.023 225.492 13.5116C226.501 14.0002 227.298 14.6984 227.883 15.607C228.468 16.5156 228.761 17.7137 228.761 19.2013C228.761 20.7433 228.445 21.9526 227.814 22.8281C227.184 23.7036 226.254 24.3676 225.027 24.82C226.599 25.2674 227.791 25.9632 228.606 26.9042C229.42 27.8465 229.828 29.1794 229.828 30.9029C229.828 32.4973 229.503 33.7759 228.855 34.74C228.207 35.7035 227.339 36.4492 226.249 36.9765C225.158 37.5044 223.891 37.8507 222.446 38.0174C221.001 38.184 219.492 38.267 217.92 38.267C217.221 38.267 216.435 38.2526 215.563 38.2239C214.691 38.1952 213.762 38.1634 212.776 38.1297C211.789 38.0954 210.771 38.0492 209.721 37.9918C208.672 37.9344 207.642 37.8826 206.633 37.837Z" fill="#202020"/>
<path d="M209.179 35.5487C210.82 35.6399 212.391 35.7091 213.894 35.7547C215.397 35.8008 216.676 35.8233 217.731 35.8233C219.027 35.8233 220.252 35.7665 221.405 35.6517C222.557 35.5369 223.567 35.3016 224.433 34.9459C225.299 34.5909 225.99 34.086 226.507 33.4321C227.023 32.7787 227.281 31.8951 227.281 30.7819C227.281 29.7497 227.046 28.9298 226.575 28.3214C226.105 27.7136 225.449 27.2431 224.605 26.9105C223.762 26.5779 222.747 26.3601 221.56 26.2565C220.372 26.1535 219.062 26.1017 217.628 26.1017H209.179V35.5487ZM209.179 23.6587H217.696C218.396 23.6587 219.076 23.6762 219.736 23.7099C220.395 23.7448 221.035 23.7848 221.654 23.8309C223.203 23.4958 224.353 22.9773 225.105 22.2746C225.856 21.5726 226.231 20.5829 226.231 19.3062C226.231 18.284 226.008 17.4628 225.56 16.8413C225.113 16.2204 224.503 15.7449 223.727 15.4136C222.953 15.0828 222.044 14.8863 221.001 14.8226C219.957 14.7602 218.833 14.7284 217.628 14.7284C216.687 14.7284 215.46 14.7409 213.946 14.7671C212.432 14.7927 210.843 14.8314 209.179 14.8831V23.6587ZM206.633 37.837V12.7147C207.642 12.646 208.677 12.583 209.738 12.5256C210.8 12.4688 211.812 12.4251 212.776 12.3964C213.739 12.3684 214.642 12.3428 215.485 12.3191C216.328 12.2966 217.054 12.2854 217.663 12.2854C219.165 12.2854 220.593 12.3677 221.947 12.5318C223.3 12.6966 224.481 13.023 225.492 13.5116C226.501 14.0002 227.298 14.6984 227.883 15.607C228.468 16.5156 228.761 17.7137 228.761 19.2013C228.761 20.7433 228.445 21.9526 227.814 22.8281C227.184 23.7036 226.254 24.3676 225.027 24.82C226.599 25.2674 227.791 25.9632 228.606 26.9042C229.42 27.8465 229.828 29.1794 229.828 30.9029C229.828 32.4973 229.503 33.7759 228.855 34.74C228.207 35.7035 227.339 36.4492 226.249 36.9765C225.158 37.5044 223.891 37.8507 222.446 38.0174C221.001 38.184 219.492 38.267 217.92 38.267C217.221 38.267 216.435 38.2526 215.563 38.2239C214.691 38.1952 213.762 38.1634 212.776 38.1297C211.789 38.0954 210.771 38.0492 209.721 37.9918C208.672 37.9344 207.642 37.8826 206.633 37.837V37.837Z" stroke="#202020" stroke-width="2.66667" stroke-miterlimit="10"/>
<path d="M235.836 37.837V12.7147H238.383V35.3934H256.881L256.674 37.837H235.836Z" fill="#202020"/>
<path d="M235.836 37.837V12.7147H238.383V35.3934H256.881L256.674 37.837H235.836Z" stroke="#202020" stroke-width="2.66667" stroke-miterlimit="10"/>
<path d="M268.809 29.8016H282.867L275.864 16.0189L268.809 29.8016ZM261.909 37.837L274.797 12.7147H276.913L289.819 37.837H286.997L284.003 32.0212H267.69L264.731 37.837H261.909Z" fill="#202020"/>
<path d="M268.809 29.8016H282.867L275.864 16.0189L268.809 29.8016ZM261.909 37.837L274.797 12.7147H276.913L289.819 37.837H286.997L284.003 32.0212H267.69L264.731 37.837H261.909Z" stroke="#202020" stroke-width="2.66667" stroke-miterlimit="10"/>
<path d="M293.609 25.2586C293.609 22.345 293.99 20.0249 294.756 18.2989C295.521 16.5722 296.54 15.2612 297.812 14.3669C299.084 13.4721 300.54 12.8905 302.18 12.6203C303.82 12.3507 305.504 12.2166 307.23 12.2166C308.576 12.2166 310.061 12.3021 311.684 12.4749C313.308 12.6465 314.927 12.8188 316.545 12.9904L316.338 15.4165C315.567 15.3279 314.786 15.2374 313.992 15.1463C313.2 15.0546 312.42 14.9654 311.655 14.8774C310.888 14.79 310.144 14.7314 309.421 14.7027C308.699 14.674 308.042 14.6596 307.452 14.6596C306.48 14.6596 305.526 14.6958 304.589 14.7688C303.651 14.8424 302.764 15.0016 301.925 15.2481C301.086 15.4945 300.311 15.8465 299.6 16.3045C298.888 16.7632 298.272 17.3847 297.752 18.1697C297.232 18.9541 296.826 19.9282 296.536 21.0914C296.248 22.2545 296.103 23.6436 296.103 25.2586C296.103 26.8766 296.247 28.2669 296.533 29.4314C296.82 30.5958 297.22 31.5711 297.736 32.3568C298.251 33.1424 298.862 33.7652 299.567 34.2232C300.271 34.6831 301.039 35.035 301.869 35.2815C302.7 35.5286 303.58 35.6859 304.508 35.7545C305.436 35.8238 306.381 35.8581 307.344 35.8581C307.927 35.8581 308.577 35.8469 309.294 35.8238C310.01 35.8013 310.758 35.7433 311.54 35.6509C312.321 35.5592 313.117 35.4644 313.927 35.3689C314.736 35.2734 315.54 35.1779 316.338 35.0837L316.545 37.5274C314.38 37.757 312.622 37.943 311.271 38.0865C309.919 38.23 308.575 38.3011 307.239 38.3011C305.511 38.3011 303.827 38.167 302.186 37.8974C300.545 37.6278 299.087 37.0456 297.814 36.1508C296.542 35.2559 295.522 33.9455 294.757 32.2188C293.991 30.4928 293.609 28.1727 293.609 25.2586Z" fill="#202020"/>
<path d="M293.609 25.2586C293.609 22.345 293.99 20.0249 294.756 18.2989C295.521 16.5722 296.54 15.2612 297.812 14.3669C299.084 13.4721 300.54 12.8905 302.18 12.6203C303.82 12.3507 305.504 12.2166 307.23 12.2166C308.576 12.2166 310.061 12.3021 311.684 12.4749C313.308 12.6465 314.927 12.8188 316.545 12.9904L316.338 15.4165C315.567 15.3279 314.786 15.2374 313.992 15.1463C313.2 15.0546 312.42 14.9654 311.655 14.8774C310.888 14.79 310.144 14.7314 309.421 14.7027C308.699 14.674 308.042 14.6596 307.452 14.6596C306.48 14.6596 305.526 14.6958 304.589 14.7688C303.651 14.8424 302.764 15.0016 301.925 15.2481C301.086 15.4945 300.311 15.8465 299.6 16.3045C298.888 16.7632 298.272 17.3847 297.752 18.1697C297.232 18.9541 296.826 19.9282 296.536 21.0914C296.248 22.2545 296.103 23.6436 296.103 25.2586C296.103 26.8766 296.247 28.2669 296.533 29.4314C296.82 30.5958 297.22 31.5711 297.736 32.3568C298.251 33.1424 298.862 33.7652 299.567 34.2232C300.271 34.6831 301.039 35.035 301.869 35.2815C302.7 35.5286 303.58 35.6859 304.508 35.7545C305.436 35.8238 306.381 35.8581 307.344 35.8581C307.927 35.8581 308.577 35.8469 309.294 35.8238C310.01 35.8013 310.758 35.7433 311.54 35.6509C312.321 35.5592 313.117 35.4644 313.927 35.3689C314.736 35.2734 315.54 35.1779 316.338 35.0837L316.545 37.5274C314.38 37.757 312.622 37.943 311.271 38.0865C309.919 38.23 308.575 38.3011 307.239 38.3011C305.511 38.3011 303.827 38.167 302.186 37.8974C300.545 37.6278 299.087 37.0456 297.814 36.1508C296.542 35.2559 295.522 33.9455 294.757 32.2188C293.991 30.4928 293.609 28.1727 293.609 25.2586Z" stroke="#202020" stroke-width="2.66667" stroke-miterlimit="10"/>
<path d="M322.571 37.837V12.7147H325.118V24.0544H331.416L341.671 12.7147H344.854L344.889 12.784L333.67 25.2762L344.82 37.6648L344.768 37.8714L342.032 38.2327L331.45 26.4974H325.118V37.837H322.571Z" fill="#202020"/>
<path d="M322.571 37.837V12.7147H325.118V24.0544H331.416L341.671 12.7147H344.854L344.889 12.784L333.67 25.2762L344.82 37.6648L344.768 37.8714L342.032 38.2327L331.45 26.4974H325.118V37.837H322.571Z" stroke="#202020" stroke-width="2.66667" stroke-miterlimit="10"/>
<g opacity="0.699997">
<g opacity="0.699997">
<path opacity="0.699997" d="M14.545 33.0637V3.12522C14.545 0.623528 17.3418 -0.861008 19.4142 0.541782L37.1843 12.571C39.0121 13.8084 39.0121 16.501 37.1843 17.7385L14.545 33.0637Z" fill="#202020"/>
</g>
</g>
<g opacity="0.699997">
<g opacity="0.699997">
<path opacity="0.699997" d="M0 37.0119V12.9535C0 10.4518 2.79685 8.9673 4.86921 10.3701L26.4559 24.9833L4.86921 39.596C2.79685 40.9988 0 39.5142 0 37.0119Z" fill="#202020"/>
</g>
</g>
<g opacity="0.699997">
<g opacity="0.699997">
<path opacity="0.699997" d="M14.545 16.9367V46.8752C14.545 49.3763 17.3418 50.8608 19.4142 49.4586L37.1843 37.4294C39.0121 36.1914 39.0121 33.4994 37.1843 32.2619L14.545 16.9367Z" fill="#202020"/>
</g>
</g>
</svg>
